<?xml version="1.0" encoding="UTF-8" standalone="no"?>
<!-- Created with Inkscape (http://www.inkscape.org/) -->

<svg
   xmlns:dc="http://purl.org/dc/elements/1.1/"
   xmlns:cc="http://creativecommons.org/ns#"
   xmlns:rdf="http://www.w3.org/1999/02/22-rdf-syntax-ns#"
   xmlns:svg="http://www.w3.org/2000/svg"
   xmlns="http://www.w3.org/2000/svg"
   xmlns:sodipodi="http://sodipodi.sourceforge.net/DTD/sodipodi-0.dtd"
   xmlns:inkscape="http://www.inkscape.org/namespaces/inkscape"
   width="210mm"
   height="297mm"
   viewBox="0 0 210 297"
   version="1.1"
   id="svg8"
   inkscape:version="0.92.3 (2405546, 2018-03-11)"
   sodipodi:docname="AC source.svg"
   inkscape:export-filename="C:\Users\lemt\Documents\SIMULEMT PROJECT\DC source.png"
   inkscape:export-xdpi="96"
   inkscape:export-ydpi="96">
  <defs
     id="defs2" />
  <sodipodi:namedview
     id="base"
     pagecolor="#ffffff"
     bordercolor="#666666"
     borderopacity="1.0"
     inkscape:pageopacity="0.0"
     inkscape:pageshadow="2"
     inkscape:zoom="3.9486274"
     inkscape:cx="440.38187"
     inkscape:cy="438.38463"
     inkscape:document-units="mm"
     inkscape:current-layer="layer1"
     showgrid="false"
     showguides="true"
     inkscape:guide-bbox="true"
     inkscape:window-width="1360"
     inkscape:window-height="705"
     inkscape:window-x="-8"
     inkscape:window-y="-8"
     inkscape:window-maximized="1">
    <sodipodi:guide
       position="98.554401,143.61445"
       orientation="0,1"
       id="guide5852"
       inkscape:locked="false" />
  </sodipodi:namedview>
  <metadata
     id="metadata5">
    <rdf:RDF>
      <cc:Work
         rdf:about="">
        <dc:format>image/svg+xml</dc:format>
        <dc:type
           rdf:resource="http://purl.org/dc/dcmitype/StillImage" />
        <dc:title></dc:title>
      </cc:Work>
    </rdf:RDF>
  </metadata>
  <g
     inkscape:label="Camada 1"
     inkscape:groupmode="layer"
     id="layer1"
     style="display:inline">
    <path
       style="fill:none;stroke:#000000;stroke-width:0.06620442px;stroke-linecap:butt;stroke-linejoin:miter;stroke-opacity:1"
       d="m 73.659023,248.58194 c -0.04361,-0.0442 -0.179849,-0.0935 -0.130742,-0.136 0.04916,-0.0394 0.08711,0.0884 0.130742,0.136 z"
       id="path1451"
       inkscape:connector-curvature="0" />
    <path
       style="fill:none;stroke:#000000;stroke-width:0.54172927;stroke-linecap:butt;stroke-linejoin:miter;stroke-miterlimit:4;stroke-dasharray:none;stroke-opacity:1"
       d="m 73.690047,248.49315 c 0.03585,-0.0972 0.06463,-0.20257 0.10747,-0.30059 0.0077,-0.0162 0.0074,0.0369 0,0.0537 -0.02996,0.0807 -0.07202,0.16355 -0.10747,0.24557 -0.04392,0.0981 -0.09306,0.2004 -0.130745,0.30369 -0.0075,0.0165 0.0089,0.0377 0,0.0537 -0.01265,0.0216 -0.04693,0.0314 -0.0595,0.0537 -0.01765,0.0318 0.01767,0.0741 0,0.1103 -0.01266,0.0216 -0.04693,0.0315 -0.05951,0.0537 -0.0089,0.0156 0.0089,0.0378 0,0.0537 -0.01265,0.0217 -0.04692,0.0309 -0.0595,0.0538 -0.0089,0.0156 -0.0077,0.0692 0,0.0537 0.100025,-0.21525 0.185593,-0.43611 0.278389,-0.6542"
       id="path1453"
       inkscape:connector-curvature="0" />
    <flowRoot
       xml:space="preserve"
       id="flowRoot1540"
       style="font-style:normal;font-weight:normal;font-size:40px;line-height:1.25;font-family:sans-serif;letter-spacing:0px;word-spacing:0px;fill:#000000;fill-opacity:1;stroke:none"
       transform="scale(0.26458333)"><flowRegion
         id="flowRegion1542"><rect
           id="rect1544"
           width="15.781922"
           height="42.324245"
           x="406.5997"
           y="638.30164" /></flowRegion><flowPara
         id="flowPara1546">aa</flowPara></flowRoot>    <path
       style="fill:#f11700;fill-opacity:0;stroke:#000000;stroke-width:0.5291667;stroke-miterlimit:4;stroke-dasharray:none;stroke-opacity:1"
       id="path1445"
       sodipodi:type="arc"
       sodipodi:cx="-180.04962"
       sodipodi:cy="-122.56445"
       sodipodi:rx="4.6003771"
       sodipodi:ry="4.5910349"
       sodipodi:start="3.4752123"
       sodipodi:end="3.4628008"
       d="m -184.39635,-124.06786 a 4.6003771,4.5910349 0 0 1 5.8397,-2.83914 4.6003771,4.5910349 0 0 1 2.86302,5.819 4.6003771,4.5910349 0 0 1 -5.82193,2.87525 4.6003771,4.5910349 0 0 1 -2.89915,-5.80115"
       sodipodi:open="true"
       inkscape:export-xdpi="96"
       inkscape:export-ydpi="96"
       transform="matrix(0,-1,-1,0,0,0)" />
    <path
       style="fill:none;stroke:#000000;stroke-width:0.5291667;stroke-linecap:butt;stroke-linejoin:miter;stroke-miterlimit:4;stroke-dasharray:none;stroke-opacity:1"
       d="m 124.45797,184.24586 c -0.44409,0.16883 -0.44409,0.16883 -0.44409,0.16883"
       id="path1459"
       inkscape:connector-curvature="0"
       inkscape:export-xdpi="96"
       inkscape:export-ydpi="96" />
    <path
       style="fill:none;stroke:#000000;stroke-width:0.4619526;stroke-linecap:butt;stroke-linejoin:miter;stroke-miterlimit:4;stroke-dasharray:none;stroke-opacity:1"
       d="m 122.71818,175.29973 c 0,-8.47593 0,-8.47593 0,-8.47593"
       id="path1461"
       inkscape:connector-curvature="0"
       inkscape:export-xdpi="96"
       inkscape:export-ydpi="96" />
    <path
       style="fill:none;stroke:#000000;stroke-width:0.46195218;stroke-linecap:butt;stroke-linejoin:miter;stroke-miterlimit:4;stroke-dasharray:none;stroke-opacity:1"
       d="m 122.7182,193.28198 c 0,-8.47593 0,-8.47593 0,-8.47593"
       id="path1461-9"
       inkscape:connector-curvature="0"
       inkscape:export-xdpi="96"
       inkscape:export-ydpi="96" />
    <g
       id="g1885"
       style="stroke-width:0.46037501;stroke-miterlimit:4;stroke-dasharray:none"
       transform="translate(0.02946954,0.0300386)">
      <path
         transform="scale(-1,1)"
         sodipodi:open="true"
         d="m -122.54891,180.04104 a 1.5678831,1.8839115 0 0 1 1.59155,-1.4714 1.5678831,1.8839115 0 0 1 1.49075,1.61666"
         sodipodi:end="6.1416227"
         sodipodi:start="3.3615607"
         sodipodi:ry="1.8839115"
         sodipodi:rx="1.5678831"
         sodipodi:cy="180.4521"
         sodipodi:cx="-121.01881"
         sodipodi:type="arc"
         id="path1768-3-4-8"
         style="display:inline;opacity:1;fill:none;fill-opacity:1;stroke:#000000;stroke-width:0.46037501;stroke-miterlimit:4;stroke-dasharray:none;stroke-opacity:1" />
      <path
         transform="scale(-1)"
         sodipodi:open="true"
         d="m -125.63511,-179.8336 a 1.5678833,1.8839115 0 0 1 1.47027,-1.66813 1.5678833,1.8839115 0 0 1 1.61594,1.4607"
         sodipodi:end="6.0582049"
         sodipodi:start="3.2548156"
         sodipodi:ry="1.8839115"
         sodipodi:rx="1.5678833"
         sodipodi:cy="-179.62076"
         sodipodi:cx="-124.07727"
         sodipodi:type="arc"
         id="path1768-3-4-8-5"
         style="display:inline;opacity:1;fill:none;fill-opacity:1;stroke:#000000;stroke-width:0.46037501;stroke-miterlimit:4;stroke-dasharray:none;stroke-opacity:1" />
    </g>
  </g>
</svg>
