<?xml version="1.0" encoding="UTF-8" standalone="no"?>
<!-- Created with Inkscape (http://www.inkscape.org/) -->

<svg
   xmlns:dc="http://purl.org/dc/elements/1.1/"
   xmlns:cc="http://creativecommons.org/ns#"
   xmlns:rdf="http://www.w3.org/1999/02/22-rdf-syntax-ns#"
   xmlns:svg="http://www.w3.org/2000/svg"
   xmlns="http://www.w3.org/2000/svg"
   xmlns:sodipodi="http://sodipodi.sourceforge.net/DTD/sodipodi-0.dtd"
   xmlns:inkscape="http://www.inkscape.org/namespaces/inkscape"
   width="210mm"
   height="297mm"
   viewBox="0 0 210 297"
   version="1.1"
   id="svg8"
   inkscape:version="0.92.3 (2405546, 2018-03-11)"
   sodipodi:docname="Current source icon.svg">
  <defs
     id="defs2" />
  <sodipodi:namedview
     id="base"
     pagecolor="#ffffff"
     bordercolor="#666666"
     borderopacity="1.0"
     inkscape:pageopacity="0.0"
     inkscape:pageshadow="2"
     inkscape:zoom="3.25"
     inkscape:cx="436.19434"
     inkscape:cy="425.17568"
     inkscape:document-units="mm"
     inkscape:current-layer="layer1"
     showgrid="false"
     showguides="false"
     inkscape:guide-bbox="true"
     inkscape:window-width="1360"
     inkscape:window-height="705"
     inkscape:window-x="-8"
     inkscape:window-y="-8"
     inkscape:window-maximized="1" />
  <metadata
     id="metadata5">
    <rdf:RDF>
      <cc:Work
         rdf:about="">
        <dc:format>image/svg+xml</dc:format>
        <dc:type
           rdf:resource="http://purl.org/dc/dcmitype/StillImage" />
        <dc:title></dc:title>
      </cc:Work>
    </rdf:RDF>
  </metadata>
  <g
     inkscape:label="Camada 1"
     inkscape:groupmode="layer"
     id="layer1"
     style="display:inline">
    <path
       style="fill:none;stroke:#000000;stroke-width:0.06620442px;stroke-linecap:butt;stroke-linejoin:miter;stroke-opacity:1"
       d="m 73.659023,248.58194 c -0.04361,-0.0442 -0.179849,-0.0935 -0.130742,-0.136 0.04916,-0.0394 0.08711,0.0884 0.130742,0.136 z"
       id="path1451"
       inkscape:connector-curvature="0" />
    <path
       style="fill:none;stroke:#000000;stroke-width:0.54172927;stroke-linecap:butt;stroke-linejoin:miter;stroke-miterlimit:4;stroke-dasharray:none;stroke-opacity:1"
       d="m 73.690047,248.49315 c 0.03585,-0.0972 0.06463,-0.20257 0.10747,-0.30059 0.0077,-0.0162 0.0074,0.0369 0,0.0537 -0.02996,0.0807 -0.07202,0.16355 -0.10747,0.24557 -0.04392,0.0981 -0.09306,0.2004 -0.130745,0.30369 -0.0075,0.0165 0.0089,0.0377 0,0.0537 -0.01265,0.0216 -0.04693,0.0314 -0.0595,0.0537 -0.01765,0.0318 0.01767,0.0741 0,0.1103 -0.01266,0.0216 -0.04693,0.0315 -0.05951,0.0537 -0.0089,0.0156 0.0089,0.0378 0,0.0537 -0.01265,0.0217 -0.04692,0.0309 -0.0595,0.0538 -0.0089,0.0156 -0.0077,0.0692 0,0.0537 0.100025,-0.21525 0.185593,-0.43611 0.278389,-0.6542"
       id="path1453"
       inkscape:connector-curvature="0" />
    <g
       id="g864"
       inkscape:export-xdpi="96"
       inkscape:export-ydpi="96"
       transform="translate(7.6533691e-6,1.3466308e-6)">
      <g
         transform="matrix(0.98653865,0,0,1.013599,1.4414748,-2.5958923)"
         id="g1467">
        <path
           style="fill:#f11700;fill-opacity:0;stroke:#000000;stroke-width:0.55299026;stroke-miterlimit:4;stroke-dasharray:none;stroke-opacity:0.99497483"
           id="path1445"
           sodipodi:type="arc"
           sodipodi:cx="113.88292"
           sodipodi:cy="183.33569"
           sodipodi:rx="7.771914"
           sodipodi:ry="7.5527682"
           sodipodi:start="3.4752123"
           sodipodi:end="3.4628008"
           d="m 106.53952,180.86242 a 7.771914,7.5527682 0 0 1 9.86563,-4.6707 7.771914,7.5527682 0 0 1 4.83682,9.57291 7.771914,7.5527682 0 0 1 -9.83562,4.73011 7.771914,7.5527682 0 0 1 -4.89785,-9.54355"
           sodipodi:open="true" />
        <path
           style="fill:none;stroke:#000000;stroke-width:0.55299997;stroke-linecap:butt;stroke-linejoin:miter;stroke-miterlimit:4;stroke-dasharray:none;stroke-opacity:1"
           d="m 106.79375,180.22059 c -0.28525,0.7306 -0.28525,0.7306 -0.28525,0.7306"
           id="path1459"
           inkscape:connector-curvature="0" />
      </g>
      <path
         inkscape:connector-curvature="0"
         id="path1461"
         d="m 121.7078,183.28522 c 18.53645,0 18.53645,0 18.53645,0"
         style="fill:none;stroke:#000000;stroke-width:0.528;stroke-linecap:butt;stroke-linejoin:miter;stroke-miterlimit:4;stroke-dasharray:none;stroke-opacity:1" />
      <path
         inkscape:connector-curvature="0"
         id="path1461-9"
         d="m 87.327581,183.28522 c 18.536469,0 18.536469,0 18.536469,0"
         style="fill:none;stroke:#000000;stroke-width:0.528;stroke-linecap:butt;stroke-linejoin:miter;stroke-miterlimit:4;stroke-dasharray:none;stroke-opacity:1" />
      <path
         inkscape:connector-curvature="0"
         id="path1461-9-0"
         d="m 109.14841,183.21416 c 8.36035,0 8.36035,0 8.36035,0"
         style="fill:none;stroke:#000000;stroke-width:0.26732883;stroke-linecap:butt;stroke-linejoin:miter;stroke-miterlimit:4;stroke-dasharray:none;stroke-opacity:1" />
      <path
         inkscape:connector-curvature="0"
         id="path1461-9-0-9"
         d="m 109.14841,183.29349 c 8.36035,0 8.36035,0 8.36035,0"
         style="fill:none;stroke:#000000;stroke-width:0.56684995;stroke-linecap:butt;stroke-linejoin:miter;stroke-miterlimit:4;stroke-dasharray:none;stroke-opacity:1" />
      <path
         inkscape:connector-curvature="0"
         id="path9591"
         d="m 116.63518,183.97502 c -0.002,-0.97377 0.002,-2.06398 0.006,-2.06874 0.003,-0.003 0.53461,0.29166 1.18334,0.65327 l 1.17965,0.6575 2.5e-4,0.0539 c 2.3e-4,0.0293 -0.005,0.0539 -0.009,0.0539 -0.005,0 -0.53594,0.29411 -1.17955,0.65339 -0.64362,0.35935 -1.17255,0.6534 -1.17527,0.6534 -0.003,0 -0.005,-0.29549 -0.005,-0.65657 z m 0.0879,-0.35432 c -0.002,-0.15924 -0.004,-0.0329 -0.004,0.28138 -1e-5,0.314 0.002,0.44426 0.004,0.28942 0.002,-0.15468 0.002,-0.41172 0,-0.5708 z m 0.58805,0.5343 c 0.0562,-0.032 0.0994,-0.0607 0.0964,-0.0642 -0.004,-0.004 -0.0554,0.0226 -0.11636,0.0572 -0.0608,0.0357 -0.10414,0.0639 -0.0963,0.0642 0.008,4e-4 0.0601,-0.0255 0.11619,-0.0572 z m 0.91012,-0.50811 c 0.0162,-0.009 0.0331,-0.024 0.0379,-0.0309 0.006,-0.0126 -0.10421,0.0454 -0.11821,0.061 -0.009,0.01 0.0473,-0.0109 0.0807,-0.0297 z m -0.22659,-0.88298 c -0.88055,-0.49442 -1.2776,-0.71376 -1.26489,-0.69877 0.0126,0.015 2.03172,1.14341 2.0452,1.14335 0.006,-2e-5 -0.34505,-0.20006 -0.78031,-0.44458 z"
         style="fill:#000500;fill-opacity:1;stroke:#000000;stroke-width:0.02494482;stroke-miterlimit:4;stroke-dasharray:none;stroke-opacity:0.99497483" />
    </g>
  </g>
</svg>
