<?xml version="1.0" encoding="UTF-8" standalone="no"?>
<!-- Created with Inkscape (http://www.inkscape.org/) -->

<svg
   xmlns:dc="http://purl.org/dc/elements/1.1/"
   xmlns:cc="http://creativecommons.org/ns#"
   xmlns:rdf="http://www.w3.org/1999/02/22-rdf-syntax-ns#"
   xmlns:svg="http://www.w3.org/2000/svg"
   xmlns="http://www.w3.org/2000/svg"
   xmlns:sodipodi="http://sodipodi.sourceforge.net/DTD/sodipodi-0.dtd"
   xmlns:inkscape="http://www.inkscape.org/namespaces/inkscape"
   width="210mm"
   height="297mm"
   viewBox="0 0 210 297"
   version="1.1"
   id="svg8"
   inkscape:version="0.92.3 (2405546, 2018-03-11)"
   sodipodi:docname="DC source.svg">
  <defs
     id="defs2" />
  <sodipodi:namedview
     id="base"
     pagecolor="#ffffff"
     bordercolor="#666666"
     borderopacity="1.0"
     inkscape:pageopacity="0.0"
     inkscape:pageshadow="2"
     inkscape:zoom="2.29"
     inkscape:cx="416.89429"
     inkscape:cy="427.24871"
     inkscape:document-units="mm"
     inkscape:current-layer="layer1"
     showgrid="false"
     showguides="true"
     inkscape:guide-bbox="true"
     inkscape:window-width="1360"
     inkscape:window-height="705"
     inkscape:window-x="-8"
     inkscape:window-y="-8"
     inkscape:window-maximized="1">
    <sodipodi:guide
       position="98.554401,143.61445"
       orientation="0,1"
       id="guide5852"
       inkscape:locked="false" />
  </sodipodi:namedview>
  <metadata
     id="metadata5">
    <rdf:RDF>
      <cc:Work
         rdf:about="">
        <dc:format>image/svg+xml</dc:format>
        <dc:type
           rdf:resource="http://purl.org/dc/dcmitype/StillImage" />
        <dc:title></dc:title>
      </cc:Work>
    </rdf:RDF>
  </metadata>
  <g
     inkscape:label="Camada 1"
     inkscape:groupmode="layer"
     id="layer1"
     style="display:inline">
    <path
       style="fill:none;stroke:#000000;stroke-width:0.06620442px;stroke-linecap:butt;stroke-linejoin:miter;stroke-opacity:1"
       d="m 73.659023,248.58194 c -0.04361,-0.0442 -0.179849,-0.0935 -0.130742,-0.136 0.04916,-0.0394 0.08711,0.0884 0.130742,0.136 z"
       id="path1451"
       inkscape:connector-curvature="0" />
    <path
       style="fill:none;stroke:#000000;stroke-width:0.54172927;stroke-linecap:butt;stroke-linejoin:miter;stroke-miterlimit:4;stroke-dasharray:none;stroke-opacity:1"
       d="m 73.690047,248.49315 c 0.03585,-0.0972 0.06463,-0.20257 0.10747,-0.30059 0.0077,-0.0162 0.0074,0.0369 0,0.0537 -0.02996,0.0807 -0.07202,0.16355 -0.10747,0.24557 -0.04392,0.0981 -0.09306,0.2004 -0.130745,0.30369 -0.0075,0.0165 0.0089,0.0377 0,0.0537 -0.01265,0.0216 -0.04693,0.0314 -0.0595,0.0537 -0.01765,0.0318 0.01767,0.0741 0,0.1103 -0.01266,0.0216 -0.04693,0.0315 -0.05951,0.0537 -0.0089,0.0156 0.0089,0.0378 0,0.0537 -0.01265,0.0217 -0.04692,0.0309 -0.0595,0.0538 -0.0089,0.0156 -0.0077,0.0692 0,0.0537 0.100025,-0.21525 0.185593,-0.43611 0.278389,-0.6542"
       id="path1453"
       inkscape:connector-curvature="0" />
    <g
       id="g1467"
       transform="matrix(0,0.98653865,-1.013599,0,299.61479,70.888535)">
      <path
         sodipodi:open="true"
         d="m 106.53952,180.86242 a 7.771914,7.5527682 0 0 1 9.86563,-4.6707 7.771914,7.5527682 0 0 1 4.83682,9.57291 7.771914,7.5527682 0 0 1 -9.83562,4.73011 7.771914,7.5527682 0 0 1 -4.89785,-9.54355"
         sodipodi:end="3.4628008"
         sodipodi:start="3.4752123"
         sodipodi:ry="7.5527682"
         sodipodi:rx="7.771914"
         sodipodi:cy="183.33569"
         sodipodi:cx="113.88292"
         sodipodi:type="arc"
         id="path1445"
         style="fill:#f11700;fill-opacity:0;stroke:#000000;stroke-width:0.55299026;stroke-miterlimit:4;stroke-dasharray:none;stroke-opacity:0.99497483" />
      <path
         inkscape:connector-curvature="0"
         id="path1459"
         d="m 106.79375,180.22059 c -0.28525,0.7306 -0.28525,0.7306 -0.28525,0.7306"
         style="fill:none;stroke:#000000;stroke-width:0.55299997;stroke-linecap:butt;stroke-linejoin:miter;stroke-miterlimit:4;stroke-dasharray:none;stroke-opacity:1" />
    </g>
    <path
       style="fill:none;stroke:#000000;stroke-width:0.528;stroke-linecap:butt;stroke-linejoin:miter;stroke-miterlimit:4;stroke-dasharray:none;stroke-opacity:1"
       d="m 113.73368,191.15486 c 0,18.53645 0,18.53645 0,18.53645"
       id="path1461"
       inkscape:connector-curvature="0" />
    <path
       style="fill:none;stroke:#000000;stroke-width:0.528;stroke-linecap:butt;stroke-linejoin:miter;stroke-miterlimit:4;stroke-dasharray:none;stroke-opacity:1"
       d="m 113.73368,156.77464 c 0,18.53647 0,18.53647 0,18.53647"
       id="path1461-9"
       inkscape:connector-curvature="0" />
    <text
       xml:space="preserve"
       style="font-style:normal;font-weight:normal;font-size:5.63424492px;line-height:1.25;font-family:sans-serif;letter-spacing:0px;word-spacing:0px;fill:#000000;fill-opacity:1;stroke:none;stroke-width:0.28109109;stroke-miterlimit:4;stroke-dasharray:none"
       x="111.42134"
       y="189.85875"
       id="text5301"
       transform="scale(1.0001002,0.99989982)"><tspan
         sodipodi:role="line"
         id="tspan5299"
         x="111.42134"
         y="189.85875"
         style="stroke-width:0.28109109;stroke-miterlimit:4;stroke-dasharray:none">+</tspan></text>
    <text
       xml:space="preserve"
       style="font-style:normal;font-weight:normal;font-size:7.41426182px;line-height:1.25;font-family:sans-serif;letter-spacing:0px;word-spacing:0px;fill:#000000;fill-opacity:1;stroke:none;stroke-width:0.18535653"
       x="78.003723"
       y="256.59235"
       id="text5305"
       transform="scale(1.4274292,0.70056014)"><tspan
         sodipodi:role="line"
         id="tspan5303"
         x="78.003723"
         y="256.59235"
         style="stroke-width:0.18535653">-</tspan><tspan
         sodipodi:role="line"
         x="78.003723"
         y="265.86017"
         style="stroke-width:0.18535653"
         id="tspan5307" /></text>
  </g>
</svg>
